<svg width="241" height="245" viewBox="0 0 241 245" fill="none" xmlns="http://www.w3.org/2000/svg">
<g clip-path="url(#clip0)">
<path d="M25.1799 139.893C26.1468 145.378 31.4256 148.028 32.9556 147.141C34.0501 146.505 33.2226 144.49 32.6634 143.397C33.6036 145.023 36.0331 148.802 38.0994 148.397C39.2605 148.17 39.1579 146.326 38.8682 144.811C39.689 147.145 41.7324 150.753 46.567 151.303C47.405 151.401 46.7444 148.678 46.0526 146.375C47.012 148.434 48.791 150.812 51.9088 151.139C55.6866 151.539 57.7038 149.095 56.7993 146.568C55.8179 143.82 54.0811 142.243 54.4581 138.971C54.8337 135.705 55.2387 143.929 56.9416 143.405C58.2404 143.003 59.0638 141.213 59.3671 139.558C59.7254 140.037 60.0701 140.33 60.3997 140.416C62.4613 140.955 66.1385 141.645 70.0199 142.301C70.9066 144.39 71.7804 146.41 72.5707 148.286C72.6757 148.537 72.7765 148.782 72.8773 149.026C72.9667 149.244 73.0884 149.476 73.2284 149.73C74.173 151.387 76.166 153.716 78.1349 155.731C78.3673 155.972 78.5968 156.2 78.8263 156.428C79.6697 157.258 80.4777 158.015 81.1714 158.606C81.2896 158.706 81.4021 158.805 81.5119 158.891C81.9128 159.221 82.263 159.491 82.5455 159.673C84.7506 161.108 108.53 176.669 113.47 179.076C114.197 179.432 114.776 179.715 115.234 179.958C115.276 179.98 115.318 180.002 115.36 180.025C115.456 180.072 115.539 180.122 115.621 180.172C115.685 180.205 115.742 180.237 115.799 180.274L115.804 180.276C116.316 180.591 116.568 180.848 116.641 181.157C116.652 181.184 116.652 181.208 116.658 181.233C116.673 181.32 116.674 181.409 116.661 181.513C116.653 181.547 116.65 181.582 116.642 181.615C116.592 181.918 116.441 182.292 116.235 182.794C116.235 182.794 109.513 204.749 110.945 210.032C111.08 210.529 111.205 210.987 111.334 211.411C111.365 211.526 111.395 211.646 111.428 211.755C112.627 216.143 112.928 216.395 116.907 216.992C117.992 219.171 120.244 220.291 123.177 222.666C128.313 226.826 131.987 229.964 134.129 228.496C136.27 227.028 133.754 223.043 131.587 219.162C131.314 218.673 130.993 218.114 130.653 217.537C130.763 217.499 130.868 217.459 130.974 217.413C131.066 217.377 131.153 217.338 131.241 217.294C131.361 217.24 131.477 217.18 131.59 217.106L131.716 217.03C131.758 217.004 131.801 216.973 131.843 216.948C131.906 216.91 131.957 216.869 132.009 216.828C132.087 216.776 132.154 216.721 132.216 216.659C132.268 216.618 132.314 216.576 132.361 216.528C132.423 216.471 132.484 216.415 132.536 216.35C132.615 216.269 132.684 216.179 132.754 216.089C134.937 213.162 141.062 207.841 143.404 197.815C145.749 187.796 149.511 179.692 148.22 174.657C148.014 173.846 147.452 172.692 146.639 171.323C146.568 171.199 146.496 171.08 146.42 170.954C146.348 170.836 146.28 170.724 146.208 170.606C146.119 170.459 146.024 170.311 145.93 170.163C145.723 169.839 145.513 169.509 145.293 169.169C145.067 168.829 144.837 168.482 144.595 168.131C144.499 167.989 144.397 167.845 144.301 167.703C144.005 167.262 143.696 166.824 143.377 166.378C143.165 166.076 142.947 165.779 142.729 165.477C142.52 165.188 142.31 164.905 142.097 164.609C142.084 164.588 142.076 164.574 142.06 164.564C141.837 164.26 141.61 163.949 141.382 163.644C141.373 163.63 141.363 163.621 141.355 163.608C141.129 163.315 140.911 163.018 140.686 162.719C140.659 162.683 140.633 162.647 140.602 162.603C140.238 162.122 139.868 161.64 139.496 161.168C138.48 159.85 137.456 158.566 136.484 157.366C147.23 159.336 163.84 162.489 165.432 163.442C165.879 163.706 166.347 164.248 166.807 164.966C168.783 168.046 170.693 174.344 170.971 175.981C171.323 177.992 176.12 189.434 181.938 189.922C183.523 190.053 185.004 189.999 186.383 189.807C188.912 190.329 191.86 190.354 194.796 190.964C200.488 192.14 204.456 192.199 205.12 189.918C205.777 187.666 201.479 187.597 198.669 184.985C198.02 184.381 197.487 183.739 197.057 183.117C197.068 183.048 197.071 182.984 197.075 182.92C197.114 180.617 195.376 160.525 193.923 155.665C193.567 154.472 192.883 152.962 192.032 151.387C190.05 147.723 187.165 143.714 185.41 142.625C182.123 140.581 175.507 138.638 172.976 137.705C170.862 136.921 150.397 132.031 148.069 130.417C147.616 130.104 147.01 129.689 146.3 129.188C141.824 126.074 133.063 119.745 130.769 115.119C129.549 112.669 128.752 109.556 128.274 106.254L128.35 102.391C130.428 102.982 138.519 105.314 143.177 107.242C146.011 108.416 148.061 109.344 149.891 109.809C151.772 110.286 153.43 110.263 155.48 109.486C159.526 107.959 173.835 100.255 176.922 99.226C177.195 99.132 177.498 99.0338 177.833 98.9255C181.236 97.8187 187.402 95.9839 189.902 96.3091C192.65 96.6652 193.398 98.7379 194.918 99.3528C196.234 99.882 197.298 98.3945 196.985 96.2199C196.711 94.2748 195.942 93.4569 195.596 92.4869C197.68 93.1799 200.501 93.8451 201.021 92.593C201.787 90.7472 201.917 86.3449 196.015 85.0763C196.025 84.9123 196.036 84.7484 196.045 84.5901C200.664 85.5339 202.119 85.2949 203.023 82.1039C203.768 79.4446 198.423 78.5258 195.277 78.2153C195.105 77.4124 194.919 76.6418 194.719 75.9987C197.462 75.3786 199.743 74.5567 201.235 73.4828C203.135 72.1279 202.739 70.6582 199.786 69.5863C197.567 68.789 190.903 70.7399 187.71 71.7671C187.852 71.2132 187.923 70.654 187.903 70.1262C187.845 68.2457 184.887 65.1935 182.459 65.599C182.075 65.6599 177.832 69.5512 176.988 70.1594C175.978 70.8875 169.806 73.6004 166.803 74.7274C163.801 75.8488 153.729 79.9275 151.409 79.5691C150.871 79.4852 150.176 79.2622 149.383 78.9318C149.377 78.9305 149.377 78.9305 149.372 78.9291L149.366 78.9277C146.753 77.8259 143.068 75.5353 140.247 73.0692C138.499 71.5369 134.782 69.9874 131.513 68.8205C130.278 68.3764 129.099 67.9935 128.123 67.6837C128.625 65.4347 128.807 63.6901 128.861 63.0554C129.436 62.1378 129.98 61.1475 130.5 60.0915C135.868 49.1344 131.287 30.5294 121.363 22.1979C117.426 18.8949 111.88 14.6399 94.4989 13.647C91.0219 13.4518 87.9294 13.8973 85.1797 14.8129C85.1741 14.8115 85.1728 14.8171 85.1728 14.8171L85.1672 14.8157C81.917 15.8825 79.1381 17.5992 76.7559 19.6387C68.6762 21.3272 55.8301 24.4253 54.4295 25.6822C53.5014 26.5136 53.5455 29.9598 53.796 32.9988C48.8047 35.2809 45.4404 37.4966 44.5479 38.6933C41.2209 43.1173 41.8904 61.2844 43.8314 69.2059C40.8555 71.2431 38.4029 73.4734 36.3641 75.8107C28.7819 84.4678 26.7992 94.4863 24.5442 100.824C21.5252 109.318 24.2059 134.413 25.1799 139.893Z" fill="white"/>
<path d="M81.6523 18.6946C75.7786 19.6735 56.173 24.1168 54.4296 25.6822C52.6862 27.2477 54.3825 38.0456 54.3825 38.0456C54.3825 38.0456 79.8874 39.8216 82.1022 31.2626C84.317 22.7035 81.6523 18.6946 81.6523 18.6946Z" fill="#B8E4F4" stroke="black" stroke-width="3" stroke-miterlimit="10" stroke-linecap="round" stroke-linejoin="round"/>
<path d="M84.8619 144.612C84.8619 144.612 66.2129 141.948 60.3983 140.421C54.5837 138.895 44.9072 73.5876 43.8314 69.2059C41.8891 61.29 41.2209 43.1173 44.5479 38.6932C46.536 36.0523 60.7137 28.3044 77.8365 26.1911C77.8365 26.1911 92.4772 50.2839 92.6306 60.3901C92.7841 70.4962 94.8494 136.352 84.8619 144.612Z" fill="white" stroke="black" stroke-width="3" stroke-miterlimit="10" stroke-linecap="round" stroke-linejoin="round"/>
<path d="M49.4965 64.1403C49.4965 64.1403 50.6956 106.865 52.0379 114.391C52.0409 114.427 52.0508 114.46 52.0538 114.496C52.0596 114.521 52.0653 114.546 52.0711 114.572C54.9201 128.219 57.9917 139.786 60.3997 140.416C66.2143 141.943 84.8633 144.606 84.8633 144.606C88.251 141.808 90.2482 132.387 91.4085 120.771C88.5053 108.734 84.7291 95.5972 83.7102 89.3274C81.8708 77.9715 73.4786 41.3118 67.3906 38.1788C67.3906 38.1788 54.9472 39.8953 53.4787 43.3288C52.0089 46.768 48.4916 55.3062 49.4965 64.1403Z" fill="#B9E5F4"/>
<path d="M84.8619 144.612C84.8619 144.612 66.2129 141.948 60.3983 140.421C54.5837 138.895 44.9072 73.5876 43.8314 69.2059C41.8891 61.29 41.2209 43.1173 44.5479 38.6932C46.536 36.0523 60.7137 28.3044 77.8365 26.1911C77.8365 26.1911 92.4772 50.2839 92.6306 60.3901C92.7841 70.4962 94.8494 136.352 84.8619 144.612Z" stroke="black" stroke-width="3" stroke-miterlimit="10" stroke-linecap="round" stroke-linejoin="round"/>
<path d="M99.3436 121.817C99.3436 121.817 72.8691 120.702 69.0535 114.421C65.2378 108.14 61.4222 101.859 63.8877 91.7622C66.3531 81.6654 68.8186 71.5687 73.8669 72.8015C78.9153 74.0342 97.876 84.0135 95.4105 94.1102C92.9451 104.207 105.625 118.002 99.3436 121.817Z" fill="white"/>
<path d="M128.092 213.274C128.092 213.274 130.337 216.931 131.582 219.161C133.754 223.043 136.27 227.028 134.129 228.496C131.987 229.964 128.308 226.825 123.177 222.666C118.324 218.735 115.344 218.233 116.397 210.733C117.234 204.75 128.092 213.274 128.092 213.274Z" fill="#AA97C8" stroke="black" stroke-width="3" stroke-miterlimit="10"/>
<path d="M195.365 179.601C195.365 179.601 196.092 182.59 198.663 184.983C201.473 187.595 205.771 187.664 205.114 189.917C204.45 192.198 200.481 192.144 194.79 190.962C189.1 189.781 183.393 190.806 180.655 186.149C176.195 178.564 193.243 176.462 195.365 179.601Z" fill="#AA97C8" stroke="black" stroke-width="3" stroke-miterlimit="10"/>
<path d="M193.284 91.6131C193.284 91.6131 200.168 94.6255 201.015 92.5916C201.861 90.5634 201.932 85.4037 193.97 84.785" fill="white"/>
<path d="M193.284 91.6131C193.284 91.6131 200.168 94.6255 201.015 92.5916C201.861 90.5634 201.932 85.4037 193.97 84.785" stroke="black" stroke-width="3" stroke-miterlimit="10" stroke-linecap="round" stroke-linejoin="round"/>
<path d="M193.096 78.069C193.096 78.069 204.072 78.3715 203.018 82.1025C201.964 85.8334 200.155 85.5283 193.458 84.0357" fill="white"/>
<path d="M193.096 78.069C193.096 78.069 204.072 78.3715 203.018 82.1025C201.964 85.8334 200.155 85.5283 193.458 84.0357" stroke="black" stroke-width="3" stroke-miterlimit="10" stroke-linecap="round" stroke-linejoin="round"/>
<path d="M187.71 71.7671C187.71 71.7671 196.831 68.5199 199.786 69.5862C202.74 70.6582 203.137 72.1223 201.236 73.4827C199.341 74.8389 196.167 75.8114 192.388 76.4638" fill="white"/>
<path d="M187.71 71.7671C187.71 71.7671 196.831 68.5199 199.786 69.5862C202.74 70.6582 203.137 72.1223 201.236 73.4827C199.341 74.8389 196.167 75.8114 192.388 76.4638" stroke="black" stroke-width="3" stroke-miterlimit="10" stroke-linecap="round" stroke-linejoin="round"/>
<path d="M110.523 29.2036C110.523 29.2036 110.569 27.4318 107.75 25.5903" stroke="black" stroke-width="3" stroke-miterlimit="10" stroke-linecap="round" stroke-linejoin="round"/>
<path d="M127.843 102.25C127.843 102.25 137.795 105.018 143.177 107.242C148.922 109.614 151.433 111.017 155.474 109.484C159.522 107.952 173.831 100.248 176.918 99.219C179.999 98.1881 187.155 95.9474 189.904 96.3035C192.652 96.6595 193.4 98.7323 194.92 99.3472C196.235 99.8763 197.294 98.3874 196.987 96.2142C196.663 93.9599 195.691 93.2174 195.465 92.003C195.238 90.7887 196.44 84.5795 195.955 81.8401C195.471 79.1007 194.745 74.7745 193.817 74.2628" fill="white"/>
<path d="M127.843 102.25C127.843 102.25 137.795 105.018 143.177 107.242C148.922 109.614 151.433 111.017 155.474 109.484C159.522 107.952 173.831 100.248 176.918 99.219C179.999 98.1881 187.155 95.9474 189.904 96.3035C192.652 96.6595 193.4 98.7323 194.92 99.3472C196.235 99.8763 197.294 98.3874 196.987 96.2142C196.663 93.9599 195.691 93.2174 195.465 92.003C195.238 90.7887 196.44 84.5795 195.955 81.8401C195.471 79.1007 194.745 74.7745 193.817 74.2628" stroke="black" stroke-width="3" stroke-miterlimit="10" stroke-linecap="round" stroke-linejoin="round"/>
<path d="M127.352 155.718C127.352 155.718 163.05 162.022 165.432 163.442C167.813 164.861 170.625 173.964 170.972 175.975C171.319 177.985 176.121 189.429 181.94 189.916C191.09 190.683 197.039 185.211 197.077 182.914C197.114 180.617 195.376 160.524 193.925 155.659C192.741 151.697 187.921 144.172 185.411 142.62C182.118 140.579 175.508 138.632 172.972 137.698C170.857 136.914 150.393 132.024 148.065 130.41C144.765 128.124 133.426 120.475 130.764 115.118C126.93 107.4 127.247 93.1766 128.63 86.9048" fill="white"/>
<path d="M127.352 155.718C127.352 155.718 163.05 162.022 165.432 163.442C167.813 164.861 170.625 173.964 170.972 175.975C171.319 177.985 176.121 189.429 181.94 189.916C191.09 190.683 197.039 185.211 197.077 182.914C197.114 180.617 195.376 160.524 193.925 155.659C192.741 151.697 187.921 144.172 185.411 142.62C182.118 140.579 175.508 138.632 172.972 137.698C170.857 136.914 150.393 132.024 148.065 130.41C144.765 128.124 133.426 120.475 130.764 115.118C126.93 107.4 127.247 93.1766 128.63 86.9048" stroke="black" stroke-width="3" stroke-miterlimit="10" stroke-linecap="round" stroke-linejoin="round"/>
<path d="M62.9203 95.4072C60.0688 106.355 63.5406 115.066 64.0525 122.853C64.5643 130.639 69.6386 141.21 72.8717 149.025C74.0963 151.945 80.3403 158.236 82.5455 159.672C84.7451 161.107 108.53 176.669 113.47 179.076C117.034 180.814 117.034 180.814 116.235 182.794C116.235 182.794 109.512 204.755 110.945 210.032C112.384 215.311 112.857 216.371 118.525 217.232C124.187 218.092 130.57 219.021 132.753 216.094C134.935 213.168 141.061 207.846 143.402 197.82C145.742 187.8 149.504 179.696 148.219 174.663C146.928 169.628 132.103 151.696 130.303 150.305" fill="white"/>
<path d="M62.9203 95.4072C60.0688 106.355 63.5406 115.066 64.0525 122.853C64.5643 130.639 69.6386 141.21 72.8717 149.025C74.0963 151.945 80.3403 158.236 82.5455 159.672C84.7451 161.107 108.53 176.669 113.47 179.076C117.034 180.814 117.034 180.814 116.235 182.794C116.235 182.794 109.512 204.755 110.945 210.032C112.384 215.311 112.857 216.371 118.525 217.232C124.187 218.092 130.57 219.021 132.753 216.094C134.935 213.168 141.061 207.846 143.402 197.82C145.742 187.8 149.504 179.696 148.219 174.663C146.928 169.628 132.103 151.696 130.303 150.305" stroke="black" stroke-width="3" stroke-miterlimit="10" stroke-linecap="round" stroke-linejoin="round"/>
<path d="M125.425 66.8765C125.425 66.8765 136.744 70.0089 140.248 73.0636C143.932 76.2813 149.078 79.208 151.405 79.5622C153.73 79.9219 163.796 75.8419 166.798 74.7205C169.8 73.5991 175.978 70.8876 176.988 70.1594C177.832 69.5512 182.074 65.6655 182.453 65.5976C184.882 65.1922 187.84 68.2443 187.903 70.1262C188.005 73.1408 185.185 76.9753 183.95 76.87C182.716 76.7647 182.017 73.6161 182.427 71.9334" stroke="black" stroke-width="3" stroke-miterlimit="10" stroke-linecap="round" stroke-linejoin="round"/>
<path d="M127.352 155.718C127.352 155.718 163.05 162.022 165.432 163.442C167.813 164.861 170.625 173.964 170.972 175.975C171.319 177.985 176.121 189.429 181.94 189.916C191.09 190.683 197.039 185.211 197.076 182.914C197.114 180.617 195.375 160.524 193.925 155.659C192.74 151.696 187.921 144.172 185.411 142.62C182.117 140.579 175.508 138.632 172.972 137.698C170.857 136.914 150.392 132.024 148.064 130.409C144.765 128.124 133.426 120.475 130.764 115.118C126.93 107.4 127.247 93.1765 128.63 86.9047" fill="white"/>
<path d="M127.352 155.718C127.352 155.718 163.05 162.022 165.432 163.442C167.813 164.861 170.625 173.964 170.972 175.975C171.319 177.985 176.121 189.429 181.94 189.916C191.09 190.683 197.039 185.211 197.076 182.914C197.114 180.617 195.375 160.524 193.925 155.659C192.74 151.696 187.921 144.172 185.411 142.62C182.117 140.579 175.508 138.632 172.972 137.698C170.857 136.914 150.392 132.024 148.064 130.409C144.765 128.124 133.426 120.475 130.764 115.118C126.93 107.4 127.247 93.1765 128.63 86.9047" stroke="black" stroke-width="3" stroke-miterlimit="10" stroke-linecap="round" stroke-linejoin="round"/>
<path d="M132.506 152.626C133.661 154.002 134.884 155.614 136.249 157.326C146.986 159.288 163.823 162.484 165.432 163.442C167.813 164.861 170.625 173.964 170.971 175.981C171.323 177.992 176.12 189.434 181.938 189.922C185.59 190.231 188.735 189.543 191.194 188.455C187.714 185.692 182.319 179.186 180.695 174.105C178.955 168.646 175.625 158.793 166.229 155.749C156.832 152.706 151.637 153.072 146.433 150.915C141.225 148.758 140.338 146.937 137.041 146.126C133.75 145.316 133.355 144.037 132.285 146.712C131.211 149.386 128.757 148.162 132.506 152.626Z" fill="#B8E4F4"/>
<path d="M127.352 155.718C127.352 155.718 163.05 162.022 165.432 163.442C167.813 164.861 170.625 173.964 170.972 175.975C171.319 177.985 176.121 189.429 181.94 189.916C191.09 190.683 197.039 185.211 197.076 182.914C197.114 180.617 195.375 160.524 193.925 155.659C192.74 151.696 187.921 144.172 185.411 142.62C182.117 140.579 175.508 138.632 172.972 137.698C170.857 136.914 150.392 132.024 148.064 130.409C144.765 128.124 133.426 120.475 130.764 115.118C126.93 107.4 127.247 93.1765 128.63 86.9047" stroke="black" stroke-width="3" stroke-miterlimit="10" stroke-linecap="round" stroke-linejoin="round"/>
<path d="M62.4648 97.3703C60.3646 107.431 62.6246 115.799 64.0581 122.854C65.6097 130.496 69.6456 141.205 72.8773 149.026C74.1019 151.946 80.346 158.238 82.5455 159.672C84.7507 161.108 108.53 176.669 113.47 179.076C117.04 180.815 117.04 180.815 116.235 182.794C116.235 182.794 109.513 204.749 110.945 210.032C112.384 215.311 112.862 216.373 118.525 217.232C119.356 217.358 120.2 217.481 121.045 217.598C121.045 217.598 117.11 211.853 118.483 204.526C119.849 197.204 126.892 188.124 124.098 179.365C121.31 170.606 103.048 158.907 98.4601 157.371C93.868 155.828 81.5975 148.95 79.4298 141.08C77.2622 133.211 70.9572 119.379 72.9197 108.47C74.446 100.005 75.209 97.1478 74.6327 95.2239C73.9893 93.0876 66.5437 94.7109 62.4648 97.3703Z" fill="#B8E4F4"/>
<path d="M62.5823 97.1078C59.7308 108.055 62.0743 116.081 63.4484 122.77C65.0126 130.41 69.6456 141.206 72.8786 149.02C74.1032 151.941 80.3473 158.232 82.5525 159.668C84.752 161.103 108.537 176.664 113.477 179.071C117.041 180.809 117.041 180.809 116.242 182.79C116.242 182.79 109.902 206.128 111.341 211.407C112.78 216.686 112.869 216.369 118.532 217.228C124.194 218.088 130.577 219.016 132.76 216.09C134.942 213.164 141.068 207.842 143.409 197.816C145.749 187.796 149.511 179.692 148.226 174.659C146.935 169.624 132.11 151.691 130.309 150.301" stroke="black" stroke-width="3" stroke-miterlimit="10" stroke-linecap="round" stroke-linejoin="round"/>
<path d="M71.5372 94.367C71.5372 94.367 59.7368 97.1499 57.6589 100.524C55.5753 103.896 55.2275 107.901 55.4497 112.151C55.6718 116.402 55.891 130.572 56.4119 132.357C56.9914 134.341 59.4351 135.36 59.4964 138.103C59.5416 139.963 58.6459 142.876 56.9416 143.405C55.2374 143.934 54.8337 135.704 54.4568 138.977C54.0811 142.243 55.8166 143.826 56.7979 146.574C57.7025 149.101 55.6908 151.546 51.906 151.151C46.2744 150.554 45.019 143.281 45.019 143.281C45.019 143.281 48.009 151.483 46.5699 151.316C39.3237 150.491 38.3474 142.805 38.3474 142.805C38.3474 142.805 40.0999 148.018 38.1023 148.41C35.475 148.922 32.2618 142.681 32.2618 142.681C32.2618 142.681 34.4829 146.266 32.9529 147.153C31.4229 148.039 26.1455 145.383 25.1771 139.904C24.2088 134.426 21.5224 109.329 24.5415 100.836C27.5605 92.3421 30.0979 77.2286 46.2793 67.6519C62.4608 58.0752 63.7213 61.1647 65.5689 61.2414" fill="white"/>
<path d="M71.5372 94.367C71.5372 94.367 59.7368 97.1499 57.6589 100.524C55.5753 103.896 55.2275 107.901 55.4497 112.151C55.6718 116.402 55.891 130.572 56.4119 132.357C56.9914 134.341 59.4351 135.36 59.4964 138.103C59.5416 139.963 58.6459 142.876 56.9416 143.405C55.2374 143.934 54.8337 135.704 54.4568 138.977C54.0811 142.243 55.8166 143.826 56.7979 146.574C57.7025 149.101 55.6908 151.546 51.906 151.151C46.2744 150.554 45.019 143.281 45.019 143.281C45.019 143.281 48.009 151.483 46.5699 151.316C39.3237 150.491 38.3474 142.805 38.3474 142.805C38.3474 142.805 40.0999 148.018 38.1023 148.41C35.475 148.922 32.2618 142.681 32.2618 142.681C32.2618 142.681 34.4829 146.266 32.9529 147.153C31.4229 148.039 26.1455 145.383 25.1771 139.904C24.2088 134.426 21.5224 109.329 24.5415 100.836C27.5605 92.3421 30.0979 77.2286 46.2793 67.6519C62.4608 58.0752 63.7213 61.1647 65.5689 61.2414" stroke="black" stroke-width="3" stroke-miterlimit="10" stroke-linecap="round" stroke-linejoin="round"/>
<path d="M128.883 62.7934C128.883 62.7934 127.818 80.0317 116.276 84.4111C108.218 87.4718 83.8713 86.0144 73.4502 79.8143C62.2761 73.1688 60.8746 65.5693 62.3655 61.6301C63.8508 57.6895 64.5359 55.1999 63.4553 52.7369C62.3816 50.2696 61.3496 42.8851 65.388 35.3776C69.4263 27.8701 77.1252 12.6498 94.5059 13.6427C111.887 14.6356 117.433 18.8906 121.37 22.1936C131.294 30.5251 135.876 49.1245 130.507 60.0872C124.165 73.0355 113.489 75.2311 104.616 75.0556C95.7435 74.8802 82.4802 71.3622 76.6536 68.1563C70.827 64.9504 64.4157 57.2747 63.9575 54.6723" fill="#A58DC2"/>
<path d="M128.883 62.7934C128.883 62.7934 127.818 80.0317 116.276 84.4111C108.218 87.4718 83.8713 86.0144 73.4502 79.8143C62.2761 73.1688 60.8746 65.5693 62.3655 61.6301C63.8508 57.6895 64.5359 55.1999 63.4553 52.7369C62.3816 50.2696 61.3496 42.8851 65.388 35.3776C69.4263 27.8701 77.1252 12.6498 94.5059 13.6427C111.887 14.6356 117.433 18.8906 121.37 22.1936C131.294 30.5251 135.876 49.1245 130.507 60.0872C124.165 73.0355 113.489 75.2311 104.616 75.0556C95.7435 74.8802 82.4802 71.3622 76.6536 68.1563C70.827 64.9504 64.4157 57.2747 63.9575 54.6723" stroke="black" stroke-width="3" stroke-miterlimit="10" stroke-linecap="round" stroke-linejoin="round"/>
<path d="M84.0446 42.2454C84.0446 42.2454 99.1725 28.0012 111.36 28.3559C117.863 28.5471 127.095 32.0971 129.854 34.8156" stroke="black" stroke-width="3" stroke-miterlimit="10"/>
<path d="M117.448 72.9645C117.448 72.9645 128.707 63.8559 128.562 46.8273C128.508 40.3772 121.813 34.2547 115.986 33.0458C104.106 30.579 98.5896 31.2646 89.9082 37.3887C84.932 40.8989 72.5291 49.9955 78.9308 68.4449C78.9308 68.4449 88.8476 72.5723 96.2172 74.1816C103.585 75.7966 117.448 72.9645 117.448 72.9645Z" fill="#392764" stroke="black" stroke-width="3" stroke-miterlimit="10" stroke-linecap="round" stroke-linejoin="round"/>
<path d="M77.7242 41.9621C85.7748 45.4317 84.954 53.5882 83.1198 57.2296C81.2855 60.871 73.6158 63.5094 70.0186 61.056C66.4214 58.6025 63.2747 53.0138 65.9176 48.2028C68.5605 43.3917 71.5561 39.3028 77.7242 41.9621Z" fill="white" stroke="black" stroke-width="3" stroke-miterlimit="10" stroke-linecap="round" stroke-linejoin="round"/>
<path d="M105.932 94.5455C98.7958 95.7035 92.8137 98.3678 91.0689 99.9388C89.3255 101.504 89.6135 109.842 89.8648 112.513C90.0553 114.557 91.3741 121.131 92.6073 122.8C93.5991 124.141 95.8305 124.472 99.3486 123.501C103.58 122.335 118.567 117.31 120.726 116.524C122.103 116.022 123.094 116.151 123.701 113.102C124.024 111.487 123.462 95.5571 122.248 94.6899C117.972 91.631 107.924 94.2236 105.932 94.5455Z" fill="#B8E4F4" stroke="black" stroke-width="3" stroke-miterlimit="10" stroke-linecap="round" stroke-linejoin="round"/>
<path d="M123.782 112.141C123.782 112.141 110.117 118.641 104.518 116.085C98.9187 113.529 95.7646 107.095 97.7142 102.275C98.6427 99.9814 117.155 97.9221 123.191 98.98" fill="white"/>
<path d="M89.7176 105.838C90.6254 103.849 103.298 99.4657 107.419 98.8969C111.546 98.3295 116.598 97.1619 123.19 98.9855" stroke="black" stroke-width="3" stroke-miterlimit="10" stroke-linecap="round"/>
<path d="M105.932 94.5455C98.7958 95.7035 92.8137 98.3678 91.0689 99.9388C89.3255 101.504 89.6135 109.842 89.8648 112.513C90.0553 114.557 91.3741 121.131 92.6073 122.8C93.5991 124.141 95.8305 124.472 99.3486 123.501C103.58 122.335 118.567 117.31 120.726 116.524C122.103 116.022 123.094 116.151 123.701 113.102C124.024 111.487 123.462 95.5571 122.248 94.6899C117.972 91.631 107.924 94.2236 105.932 94.5455Z" stroke="black" stroke-width="3" stroke-miterlimit="10" stroke-linecap="round" stroke-linejoin="round"/>
<path d="M134.391 181.878C134.391 181.878 121.139 182.892 115.799 180.274" stroke="black" stroke-width="3" stroke-miterlimit="10" stroke-linecap="round" stroke-linejoin="round"/>
<path d="M148.064 178.292C148.064 178.292 140.956 184.64 136.587 185.35C132.215 186.066 129.972 186.249 127.397 185.621" stroke="black" stroke-width="3" stroke-miterlimit="10" stroke-linecap="round" stroke-linejoin="round"/>
<path d="M146.639 171.323C146.639 171.323 145.805 175.957 143.907 177.277" stroke="black" stroke-width="3" stroke-miterlimit="10" stroke-linecap="round" stroke-linejoin="round"/>
<path d="M47.4966 122.376C47.4966 122.376 29.4013 121.316 24.4313 116.744" stroke="black" stroke-width="3" stroke-miterlimit="10" stroke-linecap="round" stroke-linejoin="round"/>
<path d="M54.6412 125.613C54.6412 125.613 37.3413 127.867 31.069 124.344" stroke="black" stroke-width="3" stroke-miterlimit="10" stroke-linecap="round" stroke-linejoin="round"/>
<path d="M65.7487 83.824C65.7487 83.824 58.6503 72.3905 61.9221 63.2752" stroke="black" stroke-width="3" stroke-miterlimit="10" stroke-linecap="round" stroke-linejoin="round"/>
<path d="M57.8155 71.0871C57.8155 71.0871 56.0822 66.842 58.7235 61.4779" stroke="black" stroke-width="3" stroke-miterlimit="10" stroke-linecap="round" stroke-linejoin="round"/>
<path d="M50.2363 94.0931C50.2363 94.0931 36.0077 84.1103 36.3585 75.8094" stroke="black" stroke-width="3" stroke-miterlimit="10" stroke-linecap="round" stroke-linejoin="round"/>
<path d="M51.0231 98.9035C51.0231 98.9035 37.1972 92.3832 33.3987 80.0199" stroke="black" stroke-width="3" stroke-miterlimit="10" stroke-linecap="round" stroke-linejoin="round"/>
<path d="M187.983 150.125C187.983 150.125 189 149.927 192.032 151.387" stroke="black" stroke-width="3" stroke-miterlimit="10" stroke-linecap="round" stroke-linejoin="round"/>
<path d="M183.49 148.344C183.49 148.344 177.301 146.845 172.808 152.779C167.957 159.185 167.49 162.025 166.806 164.972" stroke="black" stroke-width="3" stroke-miterlimit="10" stroke-linecap="round" stroke-linejoin="round"/>
<path d="M180.261 151.906C180.261 151.906 171.459 154.631 167.064 163.84" stroke="black" stroke-width="3" stroke-miterlimit="10" stroke-linecap="round" stroke-linejoin="round"/>
<path d="M134.731 76.9647C134.731 76.9647 134.15 70.4572 131.507 68.8192Z" fill="white"/>
<path d="M134.731 76.9647C134.731 76.9647 134.15 70.4572 131.507 68.8192" stroke="black" stroke-width="3" stroke-miterlimit="10" stroke-linecap="round" stroke-linejoin="round"/>
<path d="M130.73 78.3296C130.73 78.3296 131.427 70.3153 130.093 68.474Z" fill="white"/>
<path d="M130.73 78.3296C130.73 78.3296 131.427 70.3153 130.093 68.474" stroke="black" stroke-width="3" stroke-miterlimit="10" stroke-linecap="round" stroke-linejoin="round"/>
<path d="M125.867 146.125C125.867 146.125 124.924 145.265 119.973 144.264Z" fill="white"/>
<path d="M125.867 146.125C125.867 146.125 124.924 145.265 119.973 144.264" stroke="black" stroke-width="3" stroke-miterlimit="10" stroke-linecap="round" stroke-linejoin="round"/>
<path d="M122.527 149.506C122.527 149.506 113.576 145.27 106.161 144.357C98.371 143.399 84.4193 147.91 82.8918 149.005" stroke="black" stroke-width="3" stroke-miterlimit="10" stroke-linecap="round" stroke-linejoin="round"/>
<path d="M101.755 140.713C101.755 140.713 94.2712 138.939 86.2038 142.11C78.1421 145.283 76.1126 146.779 73.1895 149.768" stroke="black" stroke-width="3" stroke-miterlimit="10" stroke-linecap="round" stroke-linejoin="round"/>
<path d="M146.295 129.187C146.295 129.187 140.524 130.351 138.444 136.923Z" fill="white"/>
<path d="M146.295 129.187C146.295 129.187 140.524 130.351 138.444 136.923" stroke="black" stroke-width="3" stroke-miterlimit="10" stroke-linecap="round" stroke-linejoin="round"/>
<path d="M139.632 129.504C139.632 129.504 133.962 136.827 133.978 142.335C133.995 147.842 131.943 149.6 130.747 150.408" fill="white"/>
<path d="M139.632 129.504C139.632 129.504 133.962 136.827 133.978 142.335C133.995 147.842 131.943 149.6 130.747 150.408" stroke="black" stroke-width="3" stroke-miterlimit="10" stroke-linecap="round" stroke-linejoin="round"/>
<path d="M50.1366 41.4132C50.1366 41.4132 51.5627 43.0215 56.096 45.0735" stroke="black" stroke-width="3" stroke-miterlimit="10" stroke-linecap="round" stroke-linejoin="round"/>
<path d="M151.445 100.452C151.445 100.452 154.625 92.1527 154.169 88.0057C153.714 83.8587 152.672 81.5299 149.366 78.9278" fill="white"/>
<path d="M151.445 100.452C151.445 100.452 154.625 92.1527 154.169 88.0057C153.714 83.8587 152.672 81.5299 149.366 78.9278" stroke="black" stroke-width="3" stroke-miterlimit="10" stroke-linecap="round" stroke-linejoin="round"/>
<path d="M157.241 89.1779C157.241 89.1779 157.217 93.9983 155.222 99.1755C153.221 104.351 151.699 108.247 149.89 109.814" fill="white"/>
<path d="M157.241 89.1779C157.241 89.1779 157.217 93.9983 155.222 99.1755C153.221 104.351 151.699 108.247 149.89 109.814" stroke="black" stroke-width="3" stroke-miterlimit="10" stroke-linecap="round" stroke-linejoin="round"/>
<path d="M170.486 78.0935C170.486 78.0935 174.33 92.8751 177.829 98.9185Z" fill="white"/>
<path d="M170.486 78.0935C170.486 78.0935 174.33 92.8751 177.829 98.9185" stroke="black" stroke-width="3" stroke-miterlimit="10" stroke-linecap="round" stroke-linejoin="round"/>
<path d="M167.537 80.7258C167.537 80.7258 170.345 91.6464 176.44 99.3995Z" fill="white"/>
<path d="M167.537 80.7258C167.537 80.7258 170.345 91.6464 176.44 99.3995" stroke="black" stroke-width="3" stroke-miterlimit="10" stroke-linecap="round" stroke-linejoin="round"/>
<path d="M85.1616 14.8144C95.8804 14.2697 101.868 19.5418 102.558 19.7103" stroke="black" stroke-width="3" stroke-miterlimit="10" stroke-linecap="round" stroke-linejoin="round"/>
<path d="M25.1799 139.893C26.1468 145.378 31.4256 148.028 32.9556 147.141C34.0501 146.505 33.2226 144.49 32.6634 143.397C33.6036 145.023 36.0331 148.802 38.0994 148.397C39.2605 148.17 39.1579 146.326 38.8682 144.811C39.689 147.145 41.7324 150.753 46.567 151.303C47.405 151.401 46.7444 148.678 46.0526 146.375C47.012 148.434 48.791 150.812 51.9088 151.139C55.6866 151.539 57.7038 149.095 56.7993 146.568C55.8179 143.82 54.0811 142.243 54.4581 138.971C54.8337 135.705 55.2387 143.929 56.9416 143.405C58.2404 143.003 59.0638 141.213 59.3671 139.558C59.7254 140.037 60.0701 140.33 60.3997 140.416C62.4613 140.955 66.1385 141.645 70.0199 142.301C70.9066 144.39 71.7804 146.41 72.5707 148.286C72.6757 148.537 72.7765 148.782 72.8773 149.026C72.9667 149.244 73.0884 149.476 73.2284 149.73C74.173 151.387 76.166 153.716 78.1349 155.731C78.3673 155.972 78.5968 156.2 78.8263 156.428C79.6697 157.258 80.4777 158.015 81.1714 158.606C81.2896 158.706 81.4021 158.805 81.5119 158.891C81.9128 159.221 82.263 159.491 82.5455 159.673C84.7506 161.108 108.53 176.669 113.47 179.076C114.197 179.432 114.776 179.715 115.234 179.958C115.276 179.98 115.318 180.002 115.36 180.025C115.456 180.072 115.539 180.122 115.621 180.172C115.685 180.205 115.742 180.237 115.799 180.274L115.804 180.276C116.316 180.591 116.568 180.848 116.641 181.157C116.652 181.184 116.652 181.208 116.658 181.233C116.673 181.32 116.674 181.409 116.661 181.513C116.653 181.547 116.65 181.582 116.642 181.615C116.592 181.918 116.441 182.292 116.235 182.794C116.235 182.794 109.513 204.749 110.945 210.032C111.08 210.529 111.205 210.987 111.334 211.411C111.365 211.526 111.395 211.646 111.428 211.755C112.627 216.143 112.928 216.395 116.907 216.992C117.992 219.171 120.244 220.291 123.177 222.666C128.313 226.826 131.987 229.964 134.129 228.496C136.27 227.028 133.754 223.043 131.587 219.162C131.314 218.673 130.993 218.114 130.653 217.537C130.763 217.499 130.868 217.459 130.974 217.413C131.066 217.377 131.153 217.338 131.241 217.294C131.361 217.24 131.477 217.18 131.59 217.106L131.716 217.03C131.758 217.004 131.801 216.973 131.843 216.948C131.906 216.91 131.957 216.869 132.009 216.828C132.087 216.776 132.154 216.721 132.216 216.659C132.268 216.618 132.314 216.576 132.361 216.528C132.423 216.471 132.484 216.415 132.536 216.35C132.615 216.269 132.684 216.179 132.754 216.089C134.937 213.162 141.062 207.841 143.404 197.815C145.749 187.796 149.511 179.692 148.22 174.657C148.014 173.846 147.452 172.692 146.639 171.323C146.568 171.199 146.496 171.08 146.42 170.954C146.348 170.836 146.28 170.724 146.208 170.606C146.119 170.459 146.024 170.311 145.93 170.163C145.723 169.839 145.513 169.509 145.293 169.169C145.067 168.829 144.837 168.482 144.595 168.131C144.499 167.989 144.397 167.845 144.301 167.703C144.005 167.262 143.696 166.824 143.377 166.378C143.165 166.076 142.947 165.779 142.729 165.477C142.52 165.188 142.31 164.905 142.097 164.609C142.084 164.588 142.076 164.574 142.06 164.564C141.837 164.26 141.61 163.949 141.382 163.644C141.373 163.63 141.363 163.621 141.355 163.608C141.129 163.315 140.911 163.018 140.686 162.719C140.659 162.683 140.633 162.647 140.602 162.603C140.238 162.122 139.868 161.64 139.496 161.168C138.48 159.85 137.456 158.566 136.484 157.366C147.23 159.336 163.84 162.489 165.432 163.442C165.879 163.706 166.347 164.248 166.807 164.966C168.783 168.046 170.693 174.344 170.971 175.981C171.323 177.992 176.12 189.434 181.938 189.922C183.523 190.053 185.004 189.999 186.383 189.807C188.912 190.329 191.86 190.354 194.796 190.964C200.488 192.14 204.456 192.199 205.12 189.918C205.777 187.666 201.479 187.597 198.669 184.985C198.02 184.381 197.487 183.739 197.057 183.117C197.068 183.048 197.071 182.984 197.075 182.92C197.114 180.617 195.376 160.525 193.923 155.665C193.567 154.472 192.883 152.962 192.032 151.387C190.05 147.723 187.165 143.714 185.41 142.625C182.123 140.581 175.507 138.638 172.976 137.705C170.862 136.921 150.397 132.031 148.069 130.417C147.616 130.104 147.01 129.689 146.3 129.188C141.824 126.074 133.063 119.745 130.769 115.119C129.549 112.669 128.752 109.556 128.274 106.254L128.35 102.391C130.428 102.982 138.519 105.314 143.177 107.242C146.011 108.416 148.061 109.344 149.891 109.809C151.772 110.286 153.43 110.263 155.48 109.486C159.526 107.959 173.835 100.255 176.922 99.226C177.195 99.132 177.498 99.0338 177.833 98.9255C181.236 97.8187 187.402 95.9839 189.902 96.3091C192.65 96.6652 193.398 98.7379 194.918 99.3528C196.234 99.882 197.298 98.3945 196.985 96.2199C196.711 94.2748 195.942 93.4569 195.596 92.4869C197.68 93.1799 200.501 93.8451 201.021 92.593C201.787 90.7472 201.917 86.3449 196.015 85.0763C196.025 84.9123 196.036 84.7484 196.045 84.5901C200.664 85.5339 202.119 85.2949 203.023 82.1039C203.768 79.4446 198.423 78.5258 195.277 78.2153C195.105 77.4124 194.919 76.6418 194.719 75.9987C197.462 75.3786 199.743 74.5567 201.235 73.4828C203.135 72.1279 202.739 70.6582 199.786 69.5863C197.567 68.789 190.903 70.7399 187.71 71.7671C187.852 71.2132 187.923 70.654 187.903 70.1262C187.845 68.2457 184.887 65.1935 182.459 65.599C182.075 65.6599 177.832 69.5512 176.988 70.1594C175.978 70.8875 169.806 73.6004 166.803 74.7274C163.801 75.8488 153.729 79.9275 151.409 79.5691C150.871 79.4852 150.176 79.2622 149.383 78.9318C149.377 78.9305 149.377 78.9305 149.372 78.9291L149.366 78.9277C146.753 77.8259 143.068 75.5353 140.247 73.0692C138.499 71.5369 134.782 69.9874 131.513 68.8205C130.278 68.3764 129.099 67.9935 128.123 67.6837C128.625 65.4347 128.807 63.6901 128.861 63.0554C129.436 62.1378 129.98 61.1475 130.5 60.0915C135.868 49.1344 131.287 30.5294 121.363 22.1979C117.426 18.8949 111.88 14.6399 94.4989 13.647C91.0219 13.4518 87.9294 13.8973 85.1797 14.8129C85.1741 14.8115 85.1728 14.8171 85.1728 14.8171L85.1672 14.8157C81.917 15.8825 79.1381 17.5992 76.7559 19.6387C68.6762 21.3272 55.8301 24.4253 54.4295 25.6822C53.5014 26.5136 53.5455 29.9598 53.796 32.9988C48.8047 35.2809 45.4404 37.4966 44.5479 38.6933C41.2209 43.1173 41.8904 61.2844 43.8314 69.2059C40.8555 71.2431 38.4029 73.4734 36.3641 75.8107C28.7819 84.4678 26.7992 94.4863 24.5442 100.824C21.5252 109.318 24.2059 134.413 25.1799 139.893Z" stroke="black" stroke-width="3" stroke-miterlimit="10" stroke-linecap="round" stroke-linejoin="round"/>
</g>
<defs>
<clipPath id="clip0">
<rect width="198.357" height="203.196" fill="white" transform="matrix(-0.971457 -0.237215 -0.237215 0.971457 240.897 47.0532)"/>
</clipPath>
</defs>
</svg>
