<?xml version="1.0" encoding="utf-8"?>
<!-- Generator: Adobe Illustrator 24.3.0, SVG Export Plug-In . SVG Version: 6.00 Build 0)  -->
<svg version="1.1" id="Layer_1" xmlns="http://www.w3.org/2000/svg" xmlns:xlink="http://www.w3.org/1999/xlink" x="0px" y="0px"
	 viewBox="0 0 595.28 460.76" style="enable-background:new 0 0 595.28 460.76;" xml:space="preserve">
<style type="text/css">
	.st0{fill:#3E518B;}
	.st1{fill:#30457A;}
	.st2{fill:#1F2A48;}
	.st3{fill:#29365D;}
	.st4{fill:#222B4A;}
	.st5{fill:#6070AD;}
	.st6{fill:#667BBB;}
	.st7{fill:#1D2441;}
	.st8{fill:#19203B;}
	.st9{display:none;}
	.st10{display:inline;}
	.st11{fill:#111628;}
	.st12{clip-path:url(#SVGID_2_);fill:#30457A;}
	.st13{clip-path:url(#SVGID_2_);fill:#667BBB;}
	.st14{clip-path:url(#SVGID_2_);fill:#111628;}
	.st15{clip-path:url(#SVGID_2_);}
	.st16{clip-path:url(#SVGID_2_);fill:#1D2441;}
	.st17{clip-path:url(#SVGID_2_);fill:#19203B;}
	.st18{clip-path:url(#SVGID_4_);fill:#30457A;}
	.st19{clip-path:url(#SVGID_4_);fill:#667BBB;}
	.st20{clip-path:url(#SVGID_4_);fill:#111628;}
	.st21{clip-path:url(#SVGID_4_);}
	.st22{clip-path:url(#SVGID_4_);fill:#1D2441;}
	.st23{clip-path:url(#SVGID_4_);fill:#19203B;}
</style>
<g>
	<defs>
		<rect id="SVGID_1_" x="-0.08" y="-14.12" width="595.36" height="584.47"/>
	</defs>
	<clipPath id="SVGID_2_">
		<use xlink:href="#SVGID_1_"  style="overflow:visible;"/>
	</clipPath>
	<polygon class="st13" points="-10.51,203.26 608.29,203.26 608.29,411.79 -14.24,411.79 	"/>
	<polygon class="st14" points="-24.53,591.63 -17.47,372 27.71,368.64 66.53,357.17 106.76,366.12 149.82,366.12 171.71,380.12 
		224.65,377.29 252.18,366.12 291.35,364.94 309,375.53 323.82,375.53 333,382.58 359.82,382.58 378.18,397.41 487.59,397.41 
		495,381.17 525,376.23 534.18,364.94 563.12,364.94 600.41,345.35 608.29,423.53 608.29,592.23 	"/>
	<g class="st15">
		<g>
			<polygon class="st0" points="560.48,116.71 504.64,222.7 617.12,222.5 			"/>
			<polygon class="st1" points="596.67,203.63 587.87,222.56 504.63,222.7 560.48,116.71 560.71,117.12 567.96,150.14 
				560.09,167.44 			"/>
		</g>
		<g>
			<polygon class="st0" points="17.47,74.15 -69.23,240.73 109.33,240.64 			"/>
			<polygon class="st1" points="65.82,240.67 -69.22,240.73 17.47,74.15 9.05,128.49 37.76,152.61 32.02,183.61 			"/>
		</g>
		<g>
			<polygon class="st0" points="502.24,72.45 421.7,227.21 587.57,227.12 			"/>
			<polygon class="st1" points="547.15,227.15 421.7,227.21 502.24,72.45 494.41,122.94 521.09,145.34 515.75,174.14 			"/>
		</g>
		<g>
			<polygon class="st0" points="121.33,67.66 54.88,241.73 206.96,255.77 			"/>
			<polygon class="st1" points="141.91,227.69 114.55,247.23 54.89,241.73 121.32,67.65 121.58,68.19 118.05,119.13 130.22,121.94 
				118.05,159.83 			"/>
		</g>
		<g>
			<polygon class="st0" points="422.4,50.03 551.01,234.88 295.27,230.47 			"/>
			<polygon class="st1" points="459.11,145.09 411.24,232.32 306.18,214.99 422.4,50.03 422.67,50.42 434.17,87.21 420.05,105.09 
							"/>
		</g>
		<g>
			<polygon class="st0" points="194.56,78.89 144.44,210.18 259.14,220.77 			"/>
			<polygon class="st1" points="210.08,199.59 191.38,225.59 134.31,236.72 194.55,78.88 194.74,79.29 192.08,117.71 201.26,119.83 
				192.08,148.41 			"/>
		</g>
		<g>
			<polygon class="st0" points="290.6,0.04 179.46,213.59 415.94,227.21 			"/>
			<polygon class="st1" points="358.58,223.63 179.46,213.59 290.6,0.04 279.8,69.7 316.61,100.62 309.25,140.36 			"/>
		</g>
	</g>
	<polygon class="st12" points="498.44,309.28 501.26,302.7 518.2,298.93 521.03,304.11 525.62,305.17 525.62,309.28 	"/>
	<polygon class="st12" points="319.76,352.12 316.94,345.53 300,341.76 297.18,346.94 292.59,348 292.59,352.12 	"/>
	<g class="st15">
		<g>
			<polygon class="st2" points="516.44,181.27 499.5,241.63 534.44,241.63 			"/>
			<polygon class="st2" points="376.68,184.16 359.73,244.51 394.68,244.51 			"/>
			<polygon class="st2" points="453.71,192.53 436.76,252.88 471.71,252.88 			"/>
			<polygon class="st2" points="406.76,190.94 389.82,251.29 424.76,251.29 			"/>
			<polygon class="st2" points="183.79,183.17 166.85,243.53 201.79,243.53 			"/>
			<polygon class="st2" points="173.38,203.47 156.44,263.82 191.38,263.82 			"/>
			<polygon class="st2" points="164.91,202.14 147.97,262.5 182.91,262.5 			"/>
			<polygon class="st2" points="150.44,198.64 133.5,259 168.44,259 			"/>
			<polygon class="st2" points="130.39,201.82 113.45,262.18 148.39,262.18 			"/>
			<polygon class="st2" points="490.68,205.1 473.73,265.45 508.68,265.45 			"/>
			<polygon class="st2" points="389.29,197.03 372.35,257.38 407.29,257.38 			"/>
			<polygon class="st2" points="356.82,201.82 339.88,262.18 374.82,262.18 			"/>
			<polygon class="st2" points="421.17,204.12 404.22,264.47 439.17,264.47 			"/>
			<polygon class="st2" points="559.85,172.45 545.93,240.45 572.73,238.65 			"/>
			<polygon class="st2" points="534.44,183.74 522.09,244.1 546.79,244.1 			"/>
			<polygon class="st2" points="547.5,189.39 530.91,249.74 563.73,249.74 			"/>
			<polygon class="st2" points="589.32,178.29 572.73,238.65 605.56,238.65 			"/>
			<polygon class="st2" points="480.11,201.82 463.52,262.18 496.35,262.18 			"/>
			<polygon class="st2" points="576.44,185.39 568.32,245.75 589.15,245.75 			"/>
			<polygon class="st2" points="467.23,189.39 459.11,249.74 479.93,249.74 			"/>
			<polygon class="st2" points="569.91,188.22 561.79,248.57 582.62,248.57 			"/>
			<polygon class="st2" points="462.35,204.12 454.24,264.47 475.06,264.47 			"/>
			<polygon class="st2" points="440.23,184.16 432.11,244.51 452.93,244.51 			"/>
			<polygon class="st2" points="499.32,206.92 491.2,267.28 512.03,267.28 			"/>
			<polygon class="st2" points="364.06,195.41 355.94,255.77 376.76,255.77 			"/>
			<polygon class="st2" points="429.81,197.03 421.7,257.39 442.52,257.39 			"/>
			<polygon class="st2" points="337.41,186.91 329.29,247.27 350.12,247.27 			"/>
			<polygon class="st2" points="344.65,185.84 336.53,246.19 357.35,246.19 			"/>
		</g>
	</g>
	<g class="st15">
		<polygon class="st2" points="258.09,170.11 235.85,230.47 271.5,230.47 		"/>
		<polygon class="st2" points="292.17,173.47 275.23,233.82 310.17,233.82 		"/>
		<polygon class="st2" points="309.64,171.65 292.7,232 327.64,232 		"/>
		<polygon class="st2" points="327.11,192.08 310.17,252.44 345.11,252.44 		"/>
		<polygon class="st2" points="276.09,183.17 259.14,243.53 294.09,243.53 		"/>
		<polygon class="st2" points="212.91,160.76 199.5,221.11 225.97,221.11 		"/>
		<polygon class="st2" points="196.32,170.11 182.91,230.47 209.38,230.47 		"/>
		<polygon class="st2" points="204.79,180.17 191.38,240.53 217.85,240.53 		"/>
		<polygon class="st2" points="224.91,174.53 211.5,234.88 237.97,234.88 		"/>
		<polygon class="st2" points="238.14,170.11 229.5,230.47 245.38,230.47 		"/>
		<polygon class="st2" points="234.09,174.53 225.44,234.88 241.32,234.88 		"/>
		<polygon class="st2" points="246.09,183.17 237.44,243.53 253.32,243.53 		"/>
	</g>
	<g class="st15">
		<polygon class="st2" points="66.27,163.5 44.03,223.85 87.24,240.46 		"/>
		<polygon class="st2" points="92.74,180.44 75.8,240.79 110.74,240.79 		"/>
		<polygon class="st2" points="141.38,195.41 124.44,255.77 159.38,255.77 		"/>
		<polygon class="st2" points="110.21,178.61 93.27,238.97 128.21,238.97 		"/>
		<polygon class="st2" points="81.8,191.91 64.86,252.26 99.8,252.26 		"/>
		<polygon class="st2" points="21.45,152.55 8.03,212.91 34.5,212.91 		"/>
		<polygon class="st2" points="-5.02,144.79 -18.44,205.14 8.03,205.14 		"/>
		<polygon class="st2" points="4.86,161.91 -8.55,222.26 17.92,222.26 		"/>
		<polygon class="st2" points="13.33,171.97 -0.08,232.32 26.39,232.32 		"/>
		<polygon class="st2" points="33.45,166.32 20.03,226.67 46.5,226.67 		"/>
		<polygon class="st2" points="46.68,161.91 38.03,222.26 53.92,222.26 		"/>
		<polygon class="st2" points="42.62,166.32 33.98,226.67 49.86,226.67 		"/>
		<polygon class="st2" points="54.62,174.97 45.98,235.32 61.86,235.32 		"/>
	</g>
	<polygon class="st12" points="448.29,345.35 452.88,353.47 434.71,353.47 439.82,347.47 445.29,346.94 	"/>
	<polygon class="st12" points="366.53,310.88 348.18,310.88 352.24,304.18 361.59,304.18 	"/>
	<polygon class="st16" points="262.53,273.94 262.58,273.57 -47.65,260.64 -49.37,191.17 -28.19,197.76 -13.02,199.87 4.28,210.7 
		21.93,210.7 44.87,217.52 69.93,228.46 154.76,230.7 179.34,221.05 209.34,217.52 270.01,225.78 299.2,223.35 320.41,227.59 
		333.59,234.82 354.08,237.35 366.4,240.94 392.55,249.64 438.43,248.7 472.76,245.29 506.53,236.35 542.9,238.52 575.72,232 
		602.83,233.72 608.29,277.41 	"/>
	<g class="st15">
		<polygon class="st3" points="371.82,238.65 355.94,273.94 306.18,273.94 324.98,238.65 		"/>
		<polygon class="st3" points="371.82,273.94 371.82,238.65 389.82,273.94 		"/>
		<polygon class="st4" points="355.94,273.94 371.82,273.94 371.82,238.65 		"/>
		<polygon class="st4" points="357.35,243.24 347.82,263.71 322.06,263.71 331.94,243.24 		"/>
	</g>
	<polygon class="st14" points="309.04,375.53 309,375.53 291.35,364.94 	"/>
	<polygon class="st17" points="604.88,279.35 586.53,279.35 569.82,284.47 524.29,284.47 491.47,279.35 217.09,279.35 
		204.65,283.06 158.76,283.76 123.68,279.35 56.61,279.35 35.94,284 6.18,287.29 -50.65,288.35 -50.65,252 33.71,238.64 
		115.94,233.64 198.53,247.47 214.75,254.05 228.53,252.17 252.88,255 258.18,260.29 273.35,261.35 278.65,268.06 305.47,273.35 
		401.47,273.35 416.29,264.88 439.59,264.88 508.06,241.94 522.53,241.94 547,247.06 601.59,243.23 	"/>
</g>
</svg>
